<svg id="Layer_1" xmlns="http://www.w3.org/2000/svg" viewBox="0 0 108.6 18.2"><style>.st0{fill:#fff}.st1{fill:#ff4713}</style><path class="st0" d="M65.2 11.6v6.1h-3.8V.7h6.4c3.5 0 5.9 2.3 5.9 5.5s-2.4 5.5-5.9 5.5h-2.6zm2.2-3.2c1.4 0 2.4-.8 2.4-2.2 0-1.4-1-2.2-2.4-2.2h-2.2v4.4h2.2zM75.3 17.8v-12H79v12h-3.7zM81.6 17.8V.3h3.7v17.5h-3.7zM99.9 11.8c0 3.7-2.8 6.4-6.4 6.4-3.6 0-6.4-2.7-6.4-6.4s2.8-6.3 6.4-6.3c3.6-.1 6.4 2.6 6.4 6.3zm-3.7 0c0-2-1.3-3-2.7-3-1.4 0-2.7.9-2.7 3 0 2 1.3 3 2.7 3 1.4 0 2.7-1 2.7-3zM106.3 5.8h2.3V9h-2.3v4.5c0 1 .5 1.3 1.3 1.3.4 0 .7-.1 1-.1v3c-.1.1-.7.3-1.9.3-2.5 0-4-1.5-4-3.9V9h-2.1V5.8h.6c1.3 0 1.9-.8 1.9-2V2.3h3.3v3.5z"/><g><path class="st0" d="M0 17.2c2.1-.1 2.7-.5 2.7-1.4V3.2c0-.9-.5-1.3-2.7-1.4v-.6h7.5v.5C5.4 1.8 5 2.2 5 3.2v13.9h2.4c3.2 0 4.4-1.1 5.5-4.7h.5l-.2 5.4H0v-.6zM14.8 12.3c0-3.3 2.3-5.9 5.3-5.9 3.2 0 4.7 2.5 4.5 5.2H17v.4c0 2.7 1.3 4.8 3.8 4.8 1.5 0 2.5-.9 3.5-2.1l.4.3c-.9 1.5-2.2 2.9-4.6 2.9-3.3.1-5.3-2.4-5.3-5.6zm2.3-1.3l5.3-.1c.2-2.3-.6-4-2.4-4-1.6.1-2.7 1.3-2.9 4.1zM26.2 15.4c0-1 .4-1.9 1.5-2.5 1.9-1 4.8-1.4 5.1-1.7v-1.1c0-2.2-.6-3.1-2.2-3.1-.8 0-1.5.3-1.9.7.3.4.5.8.5 1.2 0 .7-.5 1.3-1.3 1.3s-1.2-.6-1.2-1.3c0-1.4 1.9-2.5 4.2-2.5 2.5 0 4 1.1 4 3.4v5.7c0 1.2.3 1.7 1.9 1.3l.1.4c-.9.4-1.4.6-2.2.6-1.3 0-1.6-.6-1.7-1.9h-.1c-1 1.1-2.2 1.9-3.6 1.9-2.2.1-3.1-1.1-3.1-2.4zm6.6-.1v-3.4c-3.6.8-4.3 1.4-4.3 3 0 1.1.5 2 1.9 2 .9-.1 1.8-.9 2.4-1.6zM37.8 14.1h.5c1.3 2.3 2.2 3.3 3.8 3.3 1.4 0 2.1-1 2.1-1.9 0-1.2-.7-1.7-3-2.4-2.4-.7-3.4-1.5-3.4-3.2 0-2.1 1.5-3.5 3.9-3.5.9 0 1.9.3 2.4.7l.5-.7h.4v3.4h-.5c-1-1.9-1.7-2.8-3-2.8-1.2 0-2 .8-2 1.9 0 1 .9 1.6 2.9 2.2 2.4.7 3.4 1.5 3.4 3.3 0 2-1.2 3.7-3.8 3.7-.9 0-2.2-.4-2.9-.8l-.9.7h-.4v-3.9zM47.1 12.3c0-3.3 2.3-5.9 5.3-5.9 3.2 0 4.7 2.5 4.5 5.2h-7.6v.4c0 2.7 1.3 4.8 3.8 4.8 1.5 0 2.5-.9 3.5-2.1l.4.3c-.9 1.5-2.2 2.9-4.6 2.9-3.3.1-5.3-2.4-5.3-5.6zm2.3-1.3l5.3-.1c.2-2.3-.6-4-2.4-4-1.6.1-2.7 1.3-2.9 4.1z"/></g><path class="st1" d="M77.1 0c1.2 0 2.2 1 2.2 2.1 0 1.2-1 2.1-2.2 2.1-1.2 0-2.1-1-2.1-2.1S75.9 0 77.1 0z"/></svg>