<?xml version="1.0" encoding="utf-8"?>
<!-- Generator: Adobe Illustrator 22.1.0, SVG Export Plug-In . SVG Version: 6.00 Build 0)  -->
<svg version="1.1" id="Layer_1" xmlns="http://www.w3.org/2000/svg" xmlns:xlink="http://www.w3.org/1999/xlink" x="0px" y="0px"
	 viewBox="0 0 108.7 18.2" style="enable-background:new 0 0 108.7 18.2;" xml:space="preserve">
<style type="text/css">
	.st0{fill:#3D4543;}
	.st1{fill:#FF4713;}
</style>
<g>
	<path class="st0" d="M65.2,11.6v6.1h-3.8V0.7h6.4c3.5,0,5.9,2.3,5.9,5.5c0,3.2-2.4,5.5-5.9,5.5H65.2z M67.4,8.4
		c1.4,0,2.4-0.8,2.4-2.2c0-1.4-1-2.2-2.4-2.2h-2.2v4.4H67.4z"/>
	<path class="st0" d="M75.3,17.8v-12h3.7v12H75.3z"/>
	<path class="st0" d="M81.6,17.8V0.3h3.7v17.5H81.6z"/>
	<path class="st0" d="M99.9,11.8c0,3.7-2.8,6.4-6.4,6.4c-3.6,0-6.4-2.7-6.4-6.4c0-3.7,2.8-6.3,6.4-6.3C97.1,5.4,99.9,8.1,99.9,11.8z
		 M96.2,11.8c0-2-1.3-3-2.7-3c-1.4,0-2.7,0.9-2.7,3c0,2,1.3,3,2.7,3C94.9,14.8,96.2,13.8,96.2,11.8z"/>
	<path class="st0" d="M106.3,5.8h2.3V9h-2.3v4.5c0,1,0.5,1.3,1.3,1.3c0.4,0,0.7-0.1,1-0.1v3c-0.1,0.1-0.7,0.3-1.9,0.3
		c-2.5,0-4-1.5-4-3.9V9h-2.1V5.8h0.6c1.3,0,1.9-0.8,1.9-2V2.3h3.3V5.8z"/>
</g>
<g>
	<g>
		<path class="st0" d="M0,17.2c2.1-0.1,2.7-0.5,2.7-1.4V3.2c0-0.9-0.5-1.3-2.7-1.4V1.2h7.5v0.5C5.4,1.8,5,2.2,5,3.2v13.9h2.4
			c3.2,0,4.4-1.1,5.5-4.7l0.5,0l-0.2,5.4H0V17.2z"/>
		<path class="st0" d="M14.8,12.3c0-3.3,2.3-5.9,5.3-5.9c3.2,0,4.7,2.5,4.5,5.2h-7.6V12v0c0,2.7,1.3,4.8,3.8,4.8
			c1.5,0,2.5-0.9,3.5-2.1l0.4,0.3c-0.9,1.5-2.2,2.9-4.6,2.9C16.8,18,14.8,15.5,14.8,12.3z M17.1,11l5.3-0.1c0.2-2.3-0.6-4-2.4-4
			C18.4,7,17.3,8.2,17.1,11z"/>
		<path class="st0" d="M26.2,15.4c0-1,0.4-1.9,1.5-2.5c1.9-1,4.8-1.4,5.1-1.7v-1.1c0-2.2-0.6-3.1-2.2-3.1c-0.8,0-1.5,0.3-1.9,0.7
			c0.3,0.4,0.5,0.8,0.5,1.2c0,0.7-0.5,1.3-1.3,1.3c-0.8,0-1.2-0.6-1.2-1.3c0-1.4,1.9-2.5,4.2-2.5c2.5,0,4,1.1,4,3.4v5.7
			c0,1.2,0.3,1.7,1.9,1.3l0.1,0.4c-0.9,0.4-1.4,0.6-2.2,0.6c-1.3,0-1.6-0.6-1.7-1.9h-0.1c-1,1.1-2.2,1.9-3.6,1.9
			C27.1,17.9,26.2,16.7,26.2,15.4z M32.8,15.3v-3.4c-3.6,0.8-4.3,1.4-4.3,3c0,1.1,0.5,2,1.9,2C31.3,16.8,32.2,16,32.8,15.3z"/>
		<path class="st0" d="M37.8,14.1h0.5c1.3,2.3,2.2,3.3,3.8,3.3c1.4,0,2.1-1,2.1-1.9c0-1.2-0.7-1.7-3-2.4c-2.4-0.7-3.4-1.5-3.4-3.2
			c0-2.1,1.5-3.5,3.9-3.5c0.9,0,1.9,0.3,2.4,0.7l0.5-0.7h0.4v3.4h-0.5C43.5,7.9,42.8,7,41.5,7c-1.2,0-2,0.8-2,1.9
			c0,1,0.9,1.6,2.9,2.2c2.4,0.7,3.4,1.5,3.4,3.3c0,2-1.2,3.7-3.8,3.7c-0.9,0-2.2-0.4-2.9-0.8L38.2,18h-0.4V14.1z"/>
		<path class="st0" d="M47.1,12.3c0-3.3,2.3-5.9,5.3-5.9c3.2,0,4.7,2.5,4.5,5.2h-7.6V12v0c0,2.7,1.3,4.8,3.8,4.8
			c1.5,0,2.5-0.9,3.5-2.1l0.4,0.3c-0.9,1.5-2.2,2.9-4.6,2.9C49.1,18,47.1,15.5,47.1,12.3z M49.4,11l5.3-0.1c0.2-2.3-0.6-4-2.4-4
			C50.7,7,49.6,8.2,49.4,11z"/>
	</g>
</g>
<path class="st1" d="M77.1,0c1.2,0,2.2,1,2.2,2.1c0,1.2-1,2.1-2.2,2.1c-1.2,0-2.1-1-2.1-2.1C75,1,75.9,0,77.1,0z"/>
</svg>
