<?xml version="1.0" standalone="no"?>
<!DOCTYPE svg PUBLIC "-//W3C//DTD SVG 20010904//EN"
 "http://www.w3.org/TR/2001/REC-SVG-20010904/DTD/svg10.dtd">
<svg version="1.0" xmlns="http://www.w3.org/2000/svg"
 width="300.000000pt" height="300.000000pt" viewBox="0 0 300.000000 300.000000"
 preserveAspectRatio="xMidYMid meet">
<metadata>
Created by potrace 1.11, written by Peter Selinger 2001-2013
</metadata>
<g transform="translate(0.000000,300.000000) scale(0.100000,-0.100000)"
fill="#000000" stroke="none">
<path d="M0 1500 l0 -1500 1500 0 1500 0 0 1500 0 1500 -1500 0 -1500 0 0
-1500z m2352 567 c92 -45 157 -112 189 -195 32 -81 32 -223 0 -304 -41 -106
-142 -192 -265 -224 -31 -8 -103 -14 -183 -14 l-133 0 0 -220 0 -220 -135 0
-135 0 0 611 0 610 293 -3 293 -3 76 -38z m-1332 -7 c0 -14 -9 -20 -37 -25
-73 -11 -117 -29 -130 -55 -10 -19 -13 -145 -13 -532 l0 -508 133 0 c150 0
217 13 277 55 50 35 107 120 140 208 17 48 29 67 42 67 16 0 18 -10 18 -92 0
-51 -3 -137 -7 -190 l-6 -98 -479 0 c-471 0 -478 0 -478 20 0 16 7 20 36 20
54 0 121 20 141 42 17 19 18 53 21 492 2 296 -1 483 -7 499 -14 37 -49 56
-122 68 -72 12 -74 12 -66 34 6 13 42 15 272 15 256 0 265 -1 265 -20z"/>
<path d="M1965 1868 c-3 -8 -4 -79 -3 -158 l3 -145 75 -3 c106 -5 169 11 209
52 75 77 54 192 -44 244 -43 22 -232 30 -240 10z"/>
</g>
</svg>
